# xmcd
#
# Track frame offsets: 
#        150
#        11482
#        24686
#        35197
#        46849
#        58579
#        69955
#        81670
#        92838
#        105312
#        114708
#        126111
#
# Disc length: 1810 seconds
#
# Revision: 0
# Processed by: cddbd v1.5.2PL0 Copyright (c) Steve Scherf et al.
# Submitted via: ExactAudioCopyFreeDBPlugin 1.0
#
DISCID=9e07100c
DTITLE=Johnny Horton - The Spectacular Johnny Horton
DYEAR=1959
DGENRE=Country
TTITLE0=The Battle Of New Orleans
TTITLE1=Whispering Pines
TTITLE2=The First Train Headin' South
TTITLE3=Lost Highway
TTITLE4=Joe's Been A-Gittin' There
TTITLE5=Sam Magee
TTITLE6=When It's Springtime In Alaska
TTITLE7=Cherokee Boogie
TTITLE8=All For The Love Of A Girl
TTITLE9=The Golden Rocket
TTITLE10=Mister Moonlight
TTITLE11=Got The Bull By The Horns
EXTD=
EXTT0=
EXTT1=
EXTT2=
EXTT3=
EXTT4=
EXTT5=
EXTT6=
EXTT7=
EXTT8=
EXTT9=
EXTT10=
EXTT11=
PLAYORDER=
